<svg width="201" height="53" viewBox="0 0 201 53" fill="none" xmlns="http://www.w3.org/2000/svg">
<path d="M80.2187 32L79.0967 29.705H75.3227L74.2177 32H70.9537L77.2267 19.352L83.4827 32H80.2187ZM77.2267 24.486L75.9007 27.512H78.5357L77.2267 24.486ZM84.7297 20.1H88.8607C90.3793 20.1 91.5297 20.4457 92.3117 21.137C93.0937 21.8283 93.4847 22.7803 93.4847 23.993C93.4847 25.1943 93.0937 26.1463 92.3117 26.849C91.5297 27.5403 90.3793 27.886 88.8607 27.886H87.6027V32H84.7297V20.1ZM88.8607 22.463H87.6027V25.506H88.8607C89.4387 25.506 89.892 25.3757 90.2207 25.115C90.5493 24.8543 90.7137 24.4803 90.7137 23.993C90.7137 23.4943 90.5493 23.1147 90.2207 22.854C89.892 22.5933 89.4387 22.463 88.8607 22.463ZM95.3215 20.1H99.4525C100.971 20.1 102.121 20.4457 102.903 21.137C103.685 21.8283 104.076 22.7803 104.076 23.993C104.076 25.1943 103.685 26.1463 102.903 26.849C102.121 27.5403 100.971 27.886 99.4525 27.886H98.1945V32H95.3215V20.1ZM99.4525 22.463H98.1945V25.506H99.4525C100.03 25.506 100.484 25.3757 100.812 25.115C101.141 24.8543 101.305 24.4803 101.305 23.993C101.305 23.4943 101.141 23.1147 100.812 22.854C100.484 22.5933 100.03 22.463 99.4525 22.463ZM112.319 27.818C112.682 28.464 113.107 28.9797 113.594 29.365C114.093 29.739 114.642 29.926 115.243 29.926C115.674 29.926 116.019 29.824 116.28 29.62C116.552 29.4047 116.688 29.1157 116.688 28.753C116.688 28.4583 116.609 28.2147 116.45 28.022C116.291 27.8293 116.036 27.648 115.685 27.478C115.345 27.308 114.886 27.1153 114.308 26.9C114.013 26.7867 113.685 26.6393 113.322 26.458C112.959 26.2767 112.608 26.0443 112.268 25.761C111.939 25.4777 111.667 25.132 111.452 24.724C111.237 24.3047 111.129 23.806 111.129 23.228C111.129 22.514 111.31 21.9077 111.673 21.409C112.047 20.899 112.546 20.508 113.169 20.236C113.804 19.964 114.506 19.828 115.277 19.828C116.082 19.828 116.773 19.9583 117.351 20.219C117.929 20.4797 118.411 20.8083 118.796 21.205C119.181 21.6017 119.476 22.004 119.68 22.412L117.487 23.636C117.226 23.2053 116.915 22.8653 116.552 22.616C116.189 22.3553 115.776 22.225 115.311 22.225C114.903 22.225 114.591 22.3157 114.376 22.497C114.172 22.667 114.07 22.8823 114.07 23.143C114.07 23.551 114.297 23.8853 114.75 24.146C115.215 24.3953 115.861 24.6673 116.688 24.962C117.243 25.1547 117.748 25.4153 118.201 25.744C118.666 26.0613 119.034 26.458 119.306 26.934C119.589 27.3987 119.731 27.9597 119.731 28.617C119.731 29.4217 119.521 30.1073 119.102 30.674C118.683 31.2293 118.133 31.6543 117.453 31.949C116.784 32.2323 116.076 32.374 115.328 32.374C114.557 32.374 113.838 32.238 113.169 31.966C112.512 31.6827 111.934 31.3087 111.435 30.844C110.948 30.368 110.574 29.841 110.313 29.263L112.319 27.818ZM120.445 22.684V20.1H129.863V22.684H126.599V32H123.709V22.684H120.445ZM129.638 26.05C129.638 25.132 129.796 24.2933 130.114 23.534C130.442 22.7747 130.896 22.1173 131.474 21.562C132.063 21.0067 132.743 20.5817 133.514 20.287C134.296 19.981 135.14 19.828 136.047 19.828C136.965 19.828 137.815 19.981 138.597 20.287C139.379 20.5817 140.053 21.0067 140.62 21.562C141.198 22.1173 141.645 22.7747 141.963 23.534C142.291 24.2933 142.456 25.132 142.456 26.05C142.456 26.968 142.297 27.8123 141.98 28.583C141.674 29.3537 141.232 30.0223 140.654 30.589C140.076 31.1557 139.396 31.5977 138.614 31.915C137.843 32.221 136.987 32.374 136.047 32.374C135.117 32.374 134.262 32.221 133.48 31.915C132.698 31.5977 132.018 31.1557 131.44 30.589C130.862 30.0223 130.414 29.3537 130.097 28.583C129.791 27.8123 129.638 26.968 129.638 26.05ZM132.681 26.05C132.681 26.7527 132.817 27.376 133.089 27.92C133.372 28.4527 133.769 28.872 134.279 29.178C134.789 29.484 135.378 29.637 136.047 29.637C136.727 29.637 137.316 29.484 137.815 29.178C138.313 28.872 138.699 28.4527 138.971 27.92C139.254 27.376 139.396 26.7527 139.396 26.05C139.396 25.3473 139.26 24.7297 138.988 24.197C138.716 23.653 138.33 23.228 137.832 22.922C137.333 22.616 136.738 22.463 136.047 22.463C135.378 22.463 134.789 22.616 134.279 22.922C133.769 23.228 133.372 23.653 133.089 24.197C132.817 24.7297 132.681 25.3473 132.681 26.05ZM144.279 20.1H148.614C150.133 20.1 151.283 20.4627 152.065 21.188C152.859 21.9133 153.255 22.8483 153.255 23.993C153.255 24.809 153.051 25.5287 152.643 26.152C152.247 26.764 151.657 27.2173 150.875 27.512L153.969 32H150.586L148.036 27.886H147.152V32H144.279V20.1ZM148.41 22.548H147.152V25.642H148.41C148.988 25.642 149.442 25.506 149.77 25.234C150.099 24.962 150.263 24.5823 150.263 24.095C150.263 23.5963 150.099 23.2167 149.77 22.956C149.442 22.684 148.988 22.548 148.41 22.548ZM155.286 20.1H163.191V22.463H158.057V24.588H162.851V26.917H158.057V29.637H163.191V32H155.286V20.1Z" fill="white"/>
<path d="M58.0059 14.7455C58.9554 13.6388 59.6143 12.1195 59.6143 10.6002C59.6143 10.3939 59.5949 10.1688 59.5562 10C58.0253 10.0563 56.165 10.9941 55.0605 12.2696C54.1885 13.2262 53.3746 14.7455 53.3746 16.2836C53.3746 16.5087 53.4133 16.7525 53.4327 16.8275C53.5296 16.8463 53.6846 16.865 53.8396 16.865C55.2349 16.865 56.9789 15.9647 58.0059 14.7455ZM59.0911 17.1839C56.7657 17.1839 54.8861 18.5532 53.6846 18.5532C52.4057 18.5532 50.7004 17.2589 48.6851 17.2589C44.8676 17.2589 40.9727 20.3351 40.9727 26.0934C40.9727 29.7135 42.426 33.5024 44.1894 35.9596C45.7203 38.0416 47.0573 39.7297 48.9564 39.7297C50.8554 39.7297 51.7081 38.5105 54.0722 38.5105C56.4557 38.5105 56.9983 39.6922 59.0911 39.6922C61.1839 39.6922 62.5597 37.854 63.8581 36.0346C65.3308 33.9526 65.9509 31.9269 65.9703 31.8143C65.854 31.7768 61.8621 30.22 61.8621 25.7933C61.8621 21.9857 65.0014 20.2788 65.1758 20.1475C63.1217 17.2589 59.9631 17.1839 59.0911 17.1839Z" fill="white"/>
<rect x="1.97668" y="1" width="197.981" height="51" rx="25.5" stroke="white" stroke-width="2"/>
</svg>
